<svg xmlns="http://www.w3.org/2000/svg" width="1600" height="900" viewBox="0 0 1600 900" role="img" aria-label="Original epic expedition map background">
  <defs>
    <linearGradient id="paper" x1="0" y1="0" x2="0" y2="1">
      <stop offset="0" stop-color="#fff2d3"/>
      <stop offset="1" stop-color="#dfc69e"/>
    </linearGradient>
    <radialGradient id="ember" cx="0.82" cy="0.16" r="0.35">
      <stop offset="0" stop-color="#e8b75a" stop-opacity="0.72"/>
      <stop offset="1" stop-color="#e8b75a" stop-opacity="0"/>
    </radialGradient>
  </defs>
  <rect width="1600" height="900" fill="url(#paper)"/>
  <rect width="1600" height="900" fill="url(#ember)"/>
  <g fill="none" stroke="#8c4e2b" stroke-width="5" opacity="0.18">
    <path d="M110 190c190-100 344 40 520-22 146-50 248-164 438-98 166 58 246 204 430 150"/>
    <path d="M70 620c168-68 296-12 430-54 190-60 300-204 520-126 180 64 310 20 498-62"/>
    <path d="M230 120v660M560 78v714M910 96v674M1260 76v730"/>
    <path d="M96 260h1350M130 475h1280M80 700h1380"/>
  </g>
  <g fill="#7b8676" opacity="0.46">
    <path d="M0 575 170 430l140 112 176-168 250 214 120-110 180 156 188-230 376 244v252H0z"/>
  </g>
  <g fill="#52463d" opacity="0.35">
    <path d="M980 515h250l-44 180h-162z"/>
    <path d="M210 560h176l-28 130H240z"/>
  </g>
  <g fill="none" stroke="#6c3722" stroke-width="10" stroke-linecap="round" opacity="0.42">
    <path d="M1200 206c30-42 70-42 100 0M1180 236h140"/>
    <path d="M1220 236l-24 118M1280 236l24 118"/>
  </g>
  <g fill="#d9823b" opacity="0.72">
    <path d="M1320 180c58 74 72 132 24 190 56 26 76 64 54 112h-154c-22-48-2-86 54-112-48-58-34-116 22-190z"/>
  </g>
</svg>

