<svg xmlns="http://www.w3.org/2000/svg" width="1600" height="900" viewBox="0 0 1600 900" role="img" aria-label="Original cheerful future classroom background">
  <defs>
    <linearGradient id="room" x1="0" y1="0" x2="0" y2="1">
      <stop offset="0" stop-color="#dff1ff"/>
      <stop offset="1" stop-color="#ffffff"/>
    </linearGradient>
    <pattern id="grid" width="64" height="64" patternUnits="userSpaceOnUse">
      <path d="M64 0H0v64" fill="none" stroke="#2086d7" stroke-width="3" opacity="0.09"/>
    </pattern>
  </defs>
  <rect width="1600" height="900" fill="url(#room)"/>
  <rect width="1600" height="900" fill="url(#grid)"/>
  <rect x="930" y="90" width="420" height="260" rx="36" fill="#ffffff" stroke="#bcd8ec" stroke-width="10"/>
  <path d="M960 310h360" stroke="#ffd24f" stroke-width="16" stroke-linecap="round"/>
  <path d="M0 690c260-66 480-50 710 16 270 78 558 52 890-28v222H0z" fill="#d4f4e7"/>
  <rect x="150" y="570" width="460" height="96" rx="34" fill="#ffd24f" opacity="0.82"/>
  <rect x="180" y="540" width="520" height="86" rx="34" fill="#ffffff" stroke="#bcd8ec" stroke-width="10"/>
  <g fill="#f35b58" opacity="0.78">
    <circle cx="210" cy="190" r="34"/>
    <circle cx="1400" cy="460" r="28"/>
  </g>
  <g fill="#ffd24f" stroke="#1d2b3a" stroke-width="6" stroke-linejoin="round" opacity="0.9">
    <path d="m410 170 18 42 46 4-34 30 10 45-40-24-40 24 10-45-34-30 46-4z"/>
    <path d="m1230 520 14 32 36 3-27 24 8 35-31-19-31 19 8-35-27-24 36-3z"/>
  </g>
  <g fill="#2b91d9" opacity="0.8">
    <rect x="1020" y="430" width="120" height="70" rx="30"/>
    <rect x="1180" y="430" width="120" height="70" rx="30"/>
  </g>
</svg>

