<svg xmlns="http://www.w3.org/2000/svg" width="1600" height="900" viewBox="0 0 1600 900" role="img" aria-label="Original open-air ancient ruin background">
  <defs>
    <linearGradient id="sky" x1="0" y1="0" x2="0" y2="1">
      <stop offset="0" stop-color="#b9e4f2"/>
      <stop offset="0.58" stop-color="#f8efc6"/>
      <stop offset="1" stop-color="#dfeec8"/>
    </linearGradient>
    <linearGradient id="grass" x1="0" y1="0" x2="1" y2="0">
      <stop offset="0" stop-color="#90bf66"/>
      <stop offset="1" stop-color="#5f9d6c"/>
    </linearGradient>
  </defs>
  <rect width="1600" height="900" fill="url(#sky)"/>
  <circle cx="1300" cy="130" r="72" fill="#f5c95b" opacity="0.72"/>
  <path d="M0 480c230-130 390-94 560-10 210 104 358 76 540-20 180-94 320-86 500 30v420H0z" fill="#cadfae" opacity="0.75"/>
  <path d="M0 610c220-90 420-80 650 10 235 92 556 44 950-42v322H0z" fill="url(#grass)"/>
  <path d="M0 725c210-60 390-48 590 12 244 73 558 39 1010-34v197H0z" fill="#3f835d" opacity="0.62"/>
  <g fill="#91a28a" stroke="#586c54" stroke-width="8" stroke-linejoin="round" opacity="0.88">
    <path d="M186 420h150l-28 154H214z"/>
    <path d="M1260 386h188l-40 170h-116z"/>
    <path d="M1016 230h142l-26 72h-86z"/>
    <path d="M425 196h118l-20 56h-76z"/>
  </g>
  <g fill="none" stroke="#1f8f7a" stroke-width="6" stroke-linecap="round" opacity="0.44">
    <path d="M236 470h56M236 516h42M1298 444h74M1304 504h58"/>
    <path d="M1084 250l22 22-22 22-22-22z"/>
  </g>
  <g fill="#fff8df" opacity="0.44">
    <path d="M110 270c28-20 58-20 88 0-16 22-30 36-44 48-14-12-28-26-44-48z"/>
    <path d="M1390 260c34-22 66-22 102 0-18 26-34 42-51 56-17-14-33-30-51-56z"/>
  </g>
</svg>

