<svg xmlns="http://www.w3.org/2000/svg" width="960" height="160" viewBox="0 0 960 160" role="img" aria-label="Wild kingdom original icon set">
  <defs>
    <style>
      .line{fill:none;stroke:#24472f;stroke-width:6;stroke-linecap:round;stroke-linejoin:round}
      .leaf{fill:#6fb06b}
      .teal{fill:#33a58d}
      .bronze{fill:#b78047}
      .gold{fill:#f3bd4f}
      .paper{fill:#fff2c4}
      .stone{fill:#91a28a}
      .red{fill:#c45b45}
    </style>
  </defs>
  <g transform="translate(0 0)">
    <rect x="10" y="14" width="136" height="132" rx="20" class="paper"/>
    <path d="M76 33c21 0 38 18 38 40v17c0 22-17 39-38 39s-38-17-38-39V73c0-22 17-40 38-40z" class="leaf"/>
    <path d="M53 82h50M61 104c9 8 22 8 31 0" class="line"/>
    <path d="M42 60c20-17 47-20 72-4M50 35l-9 20M111 36l9 22" class="line"/>
  </g>
  <g transform="translate(160 0)">
    <rect x="10" y="14" width="136" height="132" rx="20" class="paper"/>
    <path d="M46 58l28-26 33 18 10 43-23 32-44-4-19-38z" class="red"/>
    <path d="M56 70h18M91 70h18M66 99c12 9 25 9 37 0" class="line"/>
    <path d="M31 80l-16-12M118 60l22-18M41 47l-10-18" class="line"/>
  </g>
  <g transform="translate(320 0)">
    <rect x="10" y="14" width="136" height="132" rx="20" class="paper"/>
    <path d="M82 21l20 21-48 81-23 11 8-25z" class="bronze"/>
    <path d="M65 97l23 14M94 45l16 16" class="line"/>
    <path d="M40 122l-13 13" class="line"/>
  </g>
  <g transform="translate(480 0)">
    <rect x="10" y="14" width="136" height="132" rx="20" class="paper"/>
    <path d="M78 28c32 14 45 31 41 61-3 23-18 39-41 48-23-9-38-25-41-48-4-30 9-47 41-61z" class="leaf"/>
    <path d="M78 45v74M50 79h56M61 58l34 42" class="line"/>
  </g>
  <g transform="translate(640 0)">
    <rect x="10" y="14" width="136" height="132" rx="20" class="paper"/>
    <rect x="45" y="34" width="66" height="92" rx="12" class="stone"/>
    <path d="M58 54h40M58 106h40M78 71l18 18-18 18-18-18z" class="teal"/>
    <path d="M78 46v8M78 126v-8" class="line"/>
  </g>
  <g transform="translate(800 0)">
    <rect x="10" y="14" width="136" height="132" rx="20" class="paper"/>
    <path d="M30 62c32-20 63-20 96 0-13 22-28 38-48 55-20-17-35-33-48-55z" class="gold"/>
    <path d="M30 62h96M78 62v55M50 71l28 46M106 71l-28 46" class="line"/>
  </g>
</svg>

